<svg id="Layer_2" data-name="Layer 2" xmlns="http://www.w3.org/2000/svg" viewBox="0 0 1024 1024"><defs><style>.cls-1{fill:none;}.cls-2{fill:#1598e8;}.cls-3{font-size:442.16px;fill:#ececec;font-family:Benzin-Semibold;font-weight:600;}</style></defs><path class="cls-1" d="M0,0H1024V1024H0Z"/><path class="cls-2" d="M221.65,973.13a25,25,0,0,1-25-25V75.87a25,25,0,0,1,38.1-21.29L943.46,490.71a25,25,0,0,1,0,42.58L234.75,969.42A25,25,0,0,1,221.65,973.13Z"/><path class="cls-2" d="M221.65,75.87,930.35,512,221.65,948.13V75.87m0-50a50,50,0,0,0-50,50V948.13a50,50,0,0,0,76.2,42.58L956.56,554.58a50,50,0,0,0,0-85.16L247.85,33.29a50,50,0,0,0-26.21-7.42Z"/><text class="cls-3" transform="translate(267.25 683.39)">P</text></svg>